<svg width="83" height="31" viewBox="0 0 83 31" fill="none" xmlns="http://www.w3.org/2000/svg">
<path fill-rule="evenodd" clip-rule="evenodd" d="M82.4514 12.0851C82.0803 10.9164 81.5639 9.85893 80.8378 8.93664C80.1117 8.01436 79.2243 7.34649 78.1755 6.84559C77.877 6.68658 77.5139 6.52756 77.2073 6.44806C77.2073 6.44806 77.0944 6.38445 76.9895 6.38445C76.9411 6.38445 76.8846 6.38445 76.8282 6.32879C76.7878 6.32879 76.7313 6.32879 76.7313 6.27314L75.9649 6.11412C75.4002 6.01871 74.6741 5.97101 73.835 6.01871C72.5926 6.07437 71.4954 6.33675 70.5272 6.78199C69.4784 7.29084 68.591 8.0064 67.8649 8.86509C67.1388 9.78737 66.6224 10.7971 66.2513 12.0215C65.8963 13.1823 65.735 14.5022 65.735 15.822C65.735 17.1975 65.8963 18.4696 66.2594 19.6384C66.6305 20.8071 67.2033 21.8646 67.8729 22.7392C68.3973 23.3514 68.9621 23.8523 69.6478 24.3134C69.9544 24.5201 70.2126 24.6712 70.5353 24.8223H70.5756C70.5756 24.8223 70.624 24.8223 70.624 24.87C70.6586 24.87 70.6747 24.8859 70.6896 24.9008C70.7025 24.9136 70.7145 24.9256 70.737 24.9256C71.2614 25.18 71.8342 25.3232 72.4554 25.4345C74.2707 25.7843 75.8277 25.5378 75.8277 25.5378C76.6587 25.4345 77.4413 25.18 78.1674 24.87C79.2566 24.3611 80.1359 23.6535 80.8701 22.7869C81.5962 21.9282 82.1125 20.8548 82.4837 19.6861C82.8386 18.5173 83 17.2452 83 15.8697C83 14.5022 82.7902 13.2301 82.4756 12.0533L82.4514 12.0851ZM70.2933 13.1982C70.503 12.4032 70.7612 11.6319 71.1242 11.0197C71.4873 10.4155 71.9552 9.90663 72.4716 9.5568C72.996 9.19902 73.6172 9.00025 74.2868 9.00025C74.9645 9.00025 75.5373 9.14336 76.0617 9.50115C76.5781 9.85098 76.9895 10.2962 77.3526 10.8687C77.7156 11.4809 77.9818 12.1408 78.1835 12.9518C78.4014 13.7628 78.5062 14.5817 78.5062 15.496V15.7981C78.5062 16.7125 78.4014 17.6268 78.2481 18.4378C78.0383 19.2567 77.7801 19.9643 77.4171 20.5845C77.0541 21.1888 76.5861 21.642 76.0617 21.9997C75.5454 22.3575 74.9322 22.5086 74.2465 22.5086C73.5688 22.5086 72.9556 22.3496 72.4312 21.9997C71.9068 21.642 71.4389 21.1888 71.0758 20.5686C70.7047 19.9643 70.4465 19.2567 70.2368 18.4378C70.0351 17.6268 69.9786 16.7125 69.9786 15.7981C70.0351 14.9236 70.14 14.0172 70.3013 13.2062L70.2933 13.1982ZM58.9096 25.7127L56.8927 27.9946L56.6829 28.2013L56.8927 31H60.0068L63.2824 27.3904V15.9095L63.1855 15.0349L58.9096 17.2134V25.7127Z" fill="white"/>
<path fill-rule="evenodd" clip-rule="evenodd" d="M32.6726 5.22177L30.6348 3.00409L30.3659 2.81535L30.5778 0L33.7159 0.0471846L37.0904 3.61749V15.2328L36.9926 15.8776L32.6726 13.6757V5.22177ZM61.592 8.34382C62.3256 9.25605 62.8472 10.302 63.2222 11.458L63.2385 11.4265C63.6053 12.5904 63.7683 13.8487 63.7683 15.2013C63.7683 16.5618 63.6053 17.8201 63.2466 18.9761C62.8717 20.1321 62.35 21.1938 61.6165 22.0431C60.8829 22.9003 59.9863 23.6002 58.8859 24.1035C58.1523 24.4102 57.3617 24.6618 56.5221 24.7641C56.5221 24.7641 54.949 25.0079 53.1151 24.6618C52.4874 24.5517 51.9087 24.4102 51.3871 24.1585C51.3574 24.1585 51.3432 24.1437 51.3295 24.1294C51.3168 24.1162 51.3046 24.1035 51.2811 24.1035C51.2811 24.0563 51.224 24.0563 51.224 24.0563H51.1833C50.8572 23.9069 50.5964 23.7575 50.2867 23.553C49.602 23.0969 49.0233 22.6014 48.4935 21.9959C47.817 21.1309 47.2382 20.0849 46.8633 18.9289C46.5047 17.7729 46.3416 16.5146 46.3416 15.1541C46.3416 13.8487 46.4965 12.5433 46.8552 11.3951C47.2301 10.184 47.7518 9.18528 48.4853 8.27304C49.2189 7.42372 50.1155 6.71595 51.1751 6.21264C52.1532 5.77225 53.2618 5.51274 54.517 5.45769C55.3647 5.4105 56.0983 5.45769 56.6688 5.55206L57.4432 5.70934C57.4432 5.76439 57.5002 5.76439 57.541 5.76439C57.6062 5.81944 57.6551 5.81944 57.704 5.81944C57.81 5.81944 57.9241 5.88235 57.9241 5.88235C58.2338 5.96099 58.6006 6.11827 58.9022 6.27556C59.9618 6.771 60.8584 7.43158 61.592 8.34382ZM51.8272 10.4042C51.4604 11.0098 51.1996 11.7726 50.9958 12.559L51.004 12.5668C50.7947 13.3588 50.7365 14.2427 50.6801 15.0975L50.6779 15.1305C50.6779 16.0349 50.7268 16.9393 50.9388 17.7414C51.1507 18.5514 51.4115 19.2513 51.7783 19.849C52.1451 20.4624 52.6178 20.9107 53.1395 21.2645C53.6693 21.6106 54.2969 21.7679 54.9898 21.7679C55.6663 21.7679 56.3021 21.6184 56.8237 21.2645C57.3454 20.9107 57.8181 20.4624 58.1768 19.8647C58.5436 19.2513 58.8125 18.5514 59.0163 17.7414C59.1793 16.9393 59.2934 16.0349 59.2934 15.1305V14.8317C59.2934 13.9273 59.1793 13.1173 58.9674 12.3152C58.7555 11.5131 58.4947 10.8603 58.1279 10.2548C57.7611 9.68858 57.3372 9.24819 56.8237 8.90217C56.2939 8.54828 55.7152 8.40673 55.0305 8.40673C54.3377 8.40673 53.7182 8.60333 53.1966 8.95722C52.6668 9.30324 52.194 9.80654 51.8272 10.4042ZM39.4378 5.53633H43.8393V25H39.4378V5.53633Z" fill="white"/>
<path fill-rule="evenodd" clip-rule="evenodd" d="M41.5068 1C40.393 1 39.4891 1.89813 39.4891 3.00474C39.4891 4.16749 40.393 5.0576 41.5068 5.00949C42.6205 5.00949 43.5244 4.11136 43.5244 3.00474C43.5244 1.89813 42.6205 1 41.5068 1ZM36.4223 12.3468C36.0511 11.1681 35.5346 10.1015 34.8082 9.17133C34.0819 8.24113 33.1941 7.56754 32.1449 7.06234C31.8463 6.90196 31.4832 6.74159 31.1765 6.6614C31.1765 6.6614 31.0635 6.59724 30.9586 6.59724C30.9102 6.59724 30.8537 6.59724 30.7972 6.54111C30.7487 6.54111 30.7003 6.54111 30.7003 6.48498L29.9255 6.3246C29.3606 6.22837 28.6343 6.18026 27.803 6.22837C26.5601 6.2845 25.4625 6.54913 24.4941 6.99819C23.4449 7.51141 22.5572 8.23311 21.8308 9.09916C21.1045 10.0294 20.5879 11.0478 20.2167 12.2827C19.8616 13.4535 19.7002 14.7846 19.7002 16.1158C19.7002 17.503 19.8616 18.7861 20.2248 19.9649C20.596 21.1437 21.1609 22.2102 21.8389 23.0923C22.3635 23.7097 22.9284 24.2149 23.6144 24.68C23.9211 24.8885 24.5425 25.1932 24.5425 25.1932C24.5425 25.1932 24.5909 25.1932 24.5909 25.2414C24.6255 25.2414 24.6416 25.2575 24.6565 25.2724C24.6694 25.2854 24.6814 25.2975 24.7039 25.2975C25.2285 25.5541 25.7934 25.6984 26.4229 25.8107C28.2388 26.1635 29.7964 25.915 29.7964 25.915C30.6277 25.8107 31.4105 25.5541 32.1369 25.2414C33.2264 24.7281 34.1061 24.0145 34.8405 23.1404C35.5669 22.2743 36.0834 21.1918 36.4546 20.013C36.8097 18.8342 36.9631 17.5512 36.9631 16.1639C36.9631 14.7846 36.7613 13.5016 36.4465 12.3148L36.4223 12.3468ZM24.26 13.4695C24.4699 12.6676 24.7281 11.8898 25.0913 11.2723C25.4545 10.6629 25.9225 10.1497 26.4391 9.79682C26.9636 9.43596 27.5851 9.23549 28.2549 9.23549C28.9329 9.23549 29.5059 9.37983 30.0304 9.74068C30.547 10.0935 30.9586 10.5426 31.3217 11.1199C31.6849 11.7374 31.9432 12.403 32.153 13.2209C32.3709 14.0389 32.4758 14.8648 32.4758 15.787V16.0917C32.4758 17.0139 32.3709 17.9361 32.2176 18.754C32.0077 19.58 31.7495 20.2937 31.3863 20.9191C31.0231 21.5286 30.555 21.9857 30.0304 22.3465C29.5139 22.7074 28.9006 22.8597 28.2146 22.8597C27.5367 22.8597 26.9233 22.6993 26.3987 22.3465C25.8741 21.9857 25.406 21.5286 25.0429 20.9031C24.6716 20.2937 24.4134 19.58 24.2035 18.754C24.0018 17.9361 23.9453 17.0139 23.9453 16.0917C24.0018 15.2096 24.1067 14.2955 24.2681 13.4775L24.26 13.4695ZM15.108 9.17134C15.8344 10.1015 16.3509 11.1681 16.7221 12.3468L16.7383 12.3148C17.1015 13.5016 17.2629 14.7846 17.2629 16.1639C17.2629 17.5512 17.1015 18.8342 16.7464 20.013C16.3751 21.1918 15.8586 22.2743 15.1323 23.1404C14.4059 24.0145 13.5181 24.7281 12.4286 25.2414C11.7023 25.5541 10.9194 25.8107 10.0882 25.915C10.0882 25.915 8.53055 26.1635 6.71468 25.8107C6.09325 25.6984 5.52025 25.5541 4.99566 25.2975C4.9758 25.2975 4.96408 25.2975 4.95383 25.2936C4.93909 25.288 4.92738 25.2745 4.89881 25.2414C4.89881 25.1932 4.84232 25.1932 4.84232 25.1932H4.80197C4.47915 25.0409 4.22089 24.8885 3.91421 24.68C3.23628 24.2149 2.66328 23.7097 2.13869 23.0923C1.41234 22.2102 0.895829 21.1918 0.524585 19.9649C0.161411 18.7861 0 17.503 0 16.1158C0 14.7846 0.161411 13.4535 0.516514 12.2827C0.887759 11.0478 1.40427 10.0294 2.13062 9.09916C2.85697 8.23312 3.74473 7.51141 4.7939 6.99819C5.76236 6.54913 6.85995 6.2845 8.10282 6.22837C8.94215 6.18026 9.6685 6.22837 10.2334 6.3246L11.0001 6.48498C11.0001 6.54111 11.0566 6.54111 11.097 6.54111C11.1615 6.59724 11.21 6.59724 11.2584 6.59724C11.3633 6.59724 11.4763 6.6614 11.4763 6.6614C11.783 6.74159 12.1462 6.90197 12.4448 7.06234C13.4939 7.56754 14.3817 8.24113 15.108 9.17134ZM4.61635 13.4695C4.81812 12.6676 5.07637 11.8898 5.43955 11.2723C5.80272 10.6629 6.27081 10.1497 6.7954 9.79682C7.31191 9.43596 7.92527 9.23549 8.61127 9.23549C9.28919 9.23549 9.8622 9.37983 10.3868 9.74068C10.8952 10.0935 11.3149 10.5426 11.6781 11.1199C12.0412 11.7374 12.2995 12.403 12.5093 13.2209C12.7192 14.0389 12.8322 14.8648 12.8322 15.787L12.816 16.0917C12.816 17.0139 12.7192 17.9361 12.5578 18.754C12.356 19.58 12.0897 20.2937 11.7265 20.9191C11.3714 21.5286 10.9033 21.9857 10.3868 22.3465C9.87027 22.7074 9.24077 22.8597 8.57092 22.8597C7.88492 22.8597 7.26349 22.6993 6.7389 22.3465C6.22239 21.9857 5.7543 21.5286 5.39112 20.9031C5.0683 20.3979 4.82619 19.6842 4.60828 18.8182C4.39845 17.9922 4.34196 17.054 4.34196 16.1398C4.34196 15.2176 4.39845 14.2955 4.60021 13.4775L4.61635 13.4695Z" fill="white"/>
</svg>
